<svg xmlns="http://www.w3.org/2000/svg" xmlns:xlink="http://www.w3.org/1999/xlink" id="Layer_1" width="536.4" height="96.6" x="0" y="0" enable-background="new 0 0 536.4 96.6" version="1.1" viewBox="0 0 536.4 96.6" xml:space="preserve"><g><path fill="#124A85" d="M527.9,4c2.5,0,4.5,2,4.5,4.5v79.6c0,2.5-2,4.5-4.5,4.5H8.5c-2.5,0-4.5-2-4.5-4.5V8.5C4,6,6,4,8.5,4H527.9 M527.9,0H8.5C3.8,0,0,3.8,0,8.5v79.6c0,4.7,3.8,8.5,8.5,8.5h519.4c4.7,0,8.5-3.8,8.5-8.5V8.5C536.4,3.8,532.6,0,527.9,0L527.9,0z"/></g><g><path fill="#124A85" d="M36.4,22.2h11.7c7.6,0,11.4,5,11.4,15c0,4-0.7,7.1-2,9.4c-1.3,2.3-3,3.7-5,4.3c-2,0.6-5,0.9-8.9,1V75h-7.1 V22.2z M43.6,46.3c3,0,5.2-0.6,6.5-1.8c1.3-1.2,2-3.7,2-7.3c0-3.7-0.6-6.2-1.7-7.6c-1.1-1.3-3.4-2-6.7-2V46.3z"/><path fill="#124A85" d="M104,75H84.9V22.2h18.8v6H92v16.8h10.9v6H92v18.2H104V75z"/><path fill="#124A85" d="M156.4,75h-6.9l-1.9-10.5h-11.2l-2,10.5h-6.8l11.4-52.9h5.9L156.4,75z M146.7,59.2L142,34.1h-0.2l-4.4,25.1 H146.7z"/><path fill="#124A85" d="M205.1,75h-7.4l-8.3-24.8h-0.6V75h-7.1V22.2h9.9c8.1,0,12.1,4.5,12.1,13.5c0,4.1-0.6,7.2-1.8,9.3 c-1.2,2.1-3.1,3.6-5.8,4.7L205.1,75z M188.8,45.4c2.8-0.1,4.8-0.7,6-2c1.2-1.3,1.8-3.5,1.8-6.9c0-3.2-0.6-5.5-1.7-6.8 c-1.1-1.4-3-2-5.7-2h-0.4V45.4z"/><path fill="#124A85" d="M248.8,75h-19.1V22.2h7.1v46.9h12V75z"/><path fill="#124A85" d="M314.2,75h-6.9l-1.9-10.5h-11.2l-2,10.5h-6.8l11.4-52.9h5.9L314.2,75z M304.4,59.2l-4.6-25.1h-0.2 l-4.4,25.1H304.4z"/><path fill="#124A85" d="M339.5,22.2h8.3c4.5,0,7.9,1.1,10,3.3c2.2,2.2,3.2,5.7,3.2,10.4c0,6.7-2.6,10.9-7.7,12.7 c5.6,1.1,8.3,5.5,8.3,13.2c0,4.2-1,7.5-3,9.7c-2,2.3-4.9,3.4-8.6,3.4h-10.6V22.2z M346.6,27.6V46c2.7-0.1,4.7-0.8,5.9-2.1 c1.2-1.3,1.8-3.6,1.8-6.9c0-3.6-0.5-6-1.6-7.3C351.7,28.3,349.6,27.6,346.6,27.6z M346.6,51.2v18.4c2.8-0.1,4.8-0.7,6-1.8 c1.2-1.2,1.8-3.5,1.8-6.9c0-3.7-0.6-6.2-1.8-7.6C351.4,52,349.4,51.3,346.6,51.2z"/><path fill="#124A85" d="M411.7,22.2l-10.3,30.3V75h-7.1V52.8l-10-30.7h7.1l6.6,23.8l0.2-0.1l6.7-23.8H411.7z"/><path fill="#124A85" d="M453.6,29c-2.3-1.2-4.4-1.9-6.3-1.9c-1.9,0-3.4,0.7-4.8,2c-1.3,1.3-2,2.9-2,4.8c0,1.3,0.4,2.7,1.2,4.3 c0.8,1.5,2.5,3.9,5.3,7.2c2.7,3.3,4.8,6.2,6.3,8.6c1.5,2.4,2.2,5.2,2.2,8.4c0,3.9-1.2,7.1-3.5,9.6c-2.4,2.5-5.5,3.7-9.3,3.7 c-2.1,0-4.7-0.6-7.7-1.9v-6.3c0.1,0,0.2,0.1,0.3,0.1c0.4,0.3,1.3,0.8,2.6,1.4c1.3,0.6,2.6,0.9,3.9,0.9c2.1,0,3.8-0.7,5.1-2.1 c1.3-1.4,2-3.2,2-5.3c0-1.5-0.3-2.9-1-4.2s-1.9-3-3.7-5.2l-4.8-5.9c-1.9-2.3-3.2-4.4-4.1-6.2c-0.9-1.9-1.3-4.1-1.3-6.7 c0-3.8,1.1-7,3.4-9.4c2.2-2.4,5.1-3.6,8.7-3.6c2.5,0,5,0.6,7.6,1.9V29z"/><path fill="#124A85" d="M498,29c-2.3-1.2-4.4-1.9-6.3-1.9c-1.9,0-3.4,0.7-4.8,2c-1.3,1.3-2,2.9-2,4.8c0,1.3,0.4,2.7,1.2,4.3 c0.8,1.5,2.5,3.9,5.3,7.2c2.7,3.3,4.8,6.2,6.3,8.6c1.5,2.4,2.2,5.2,2.2,8.4c0,3.9-1.2,7.1-3.5,9.6c-2.4,2.5-5.5,3.7-9.3,3.7 c-2.1,0-4.7-0.6-7.7-1.9v-6.3c0.1,0,0.2,0.1,0.3,0.1c0.4,0.3,1.3,0.8,2.6,1.4c1.3,0.6,2.6,0.9,3.9,0.9c2.1,0,3.8-0.7,5.1-2.1 c1.3-1.4,2-3.2,2-5.3c0-1.5-0.3-2.9-1-4.2s-1.9-3-3.7-5.2l-4.8-5.9c-1.9-2.3-3.2-4.4-4.1-6.2c-0.9-1.9-1.3-4.1-1.3-6.7 c0-3.8,1.1-7,3.4-9.4c2.2-2.4,5.1-3.6,8.7-3.6c2.5,0,5,0.6,7.6,1.9V29z"/></g></svg>